<?xml version="1.0" encoding="utf-8"?>
<!-- Generator: Adobe Illustrator 22.0.1, SVG Export Plug-In . SVG Version: 6.00 Build 0)  -->
<svg version="1.1" id="Layer_1" xmlns="http://www.w3.org/2000/svg" xmlns:xlink="http://www.w3.org/1999/xlink" x="0px" y="0px"
	 viewBox="0 0 24 16" style="enable-background:new 0 0 24 16;" xml:space="preserve">
<style type="text/css">
	.st0{fill:#FFFFFF;}
	.st1{fill:#DDC9A3;}
	.st2{fill:#8A2432;}
</style>
<g>
	<g>
		<path class="st0" d="M17.652,7.617c0,0,0.185-0.81-0.701-1.475c0.007,0.705-0.298,0.997-0.298,0.997l-0.09-0.045l-0.198-0.532
			l0.859-1.796c0.043,0.158,0.094,0.348,0.094,0.348l0.248-0.491c0,0,0.226-0.427,0.187-0.959l0.21-0.44L17.84,1.445
			c-0.086-0.346-0.356-0.601-0.701-0.711c-0.331-0.105-0.661-0.05-0.908,0.151l-3.766,2.912C10.549,3.87,9.053,4.717,8.13,6.251
			L3.8,9.735c0.231,0.51,1.311,1.864,2.986,1.549l0.866-0.156c0,0,0.71,3.879,4.082,4.497c0,0-1.141-1.854-0.864-3.385
			c0,0,0.778,2.241,2.277,1.926c-1.208-1.477-0.548-2.95-0.548-2.95s0.61,0.993,1.991,0.873c0,0-0.939-0.997-0.624-2.336
			l2.273,0.084l1.186-0.497l0.805-1.461L17.652,7.617z M17.276,9.176l-1.075,0.451l-2.396-0.088
			c-0.406,1.327,0.364,2.342,0.364,2.342c-0.525,0-1.168-0.339-1.614-1.101c0,0-0.891,1.65,0.203,3.201c0,0-1.131,0.069-1.902-2.407
			c-0.579,1.28,0.011,2.842,0.467,3.719c-2.693-0.754-3.389-3.867-3.514-4.406l-1.162,0.209C4.849,11.274,4.066,9.79,4.066,9.79
			L8.29,6.393c0.878-1.487,2.312-2.335,4.252-2.39l3.814-2.949c0.19-0.155,0.456-0.203,0.72-0.119
			c0.278,0.088,0.5,0.316,0.557,0.544l0.117,1.703L17.54,3.62c0.023,0.262,0.001,0.586-0.162,0.907c0,0-0.042-0.158-0.122-0.315
			l-1.12,2.34l0.259,0.694l0.312,0.154c0,0,0.381-0.392,0.417-0.812c0,0,0.456,0.422,0.294,1.154l0.518,0.236L17.276,9.176z"/>
		<path d="M13.289,13.221c-0.165,0-0.299,0.133-0.299,0.299c0,0.165,0.133,0.299,0.299,0.299c0.165,0,0.299-0.134,0.299-0.299
			C13.588,13.355,13.454,13.221,13.289,13.221z M13.289,13.755c-0.13,0-0.235-0.105-0.235-0.235c0-0.13,0.105-0.235,0.235-0.235
			c0.129,0,0.234,0.105,0.234,0.235C13.524,13.65,13.418,13.755,13.289,13.755z"/>
		<path d="M13.412,13.451c0-0.056-0.045-0.102-0.101-0.102h-0.145v0.342h0.064v-0.138h0.046l0.065,0.138h0.07l-0.067-0.145
			C13.383,13.532,13.412,13.494,13.412,13.451z M13.311,13.488H13.23v-0.075h0.081c0.02,0,0.036,0.017,0.036,0.037
			C13.347,13.471,13.331,13.488,13.311,13.488z"/>
	</g>
	<g>
		<path class="st1" d="M11.905,4.728c0.039-0.121-0.202-0.096-0.202-0.096c0.166-0.109,0.336-0.173,0.422-0.201
			c0.06-0.074,0.11-0.133,0.135-0.161c-0.119,0.009-0.425,0.075-1.027,0.505C11.477,4.729,11.742,4.714,11.905,4.728z"/>
		<path class="st1" d="M17.204,7.804h0.002c0.022-0.087,0.12-0.537-0.015-0.844c-0.119,0.36-0.33,0.559-0.424,0.632l-0.529-0.257
			l0.002,0.003l1.084,0.701l-0.662,0.155l-0.001,0l0,0l-0.592-0.219c0.002,0,0.002-0.001,0.002-0.001l-0.004-0.001
			c0.035-0.18,0.09-0.572-0.035-0.857c-0.122,0.369-0.331,0.585-0.444,0.68l-0.571-0.212l-0.48-1.254l1.744-2.818
			c0.099,0.104,0.205,0.246,0.292,0.433c0.086-0.277,0.004-0.633-0.053-0.82l0.212-0.342l0.497-0.359l0.092,0.466l-0.829,2.296
			l0.657-1.416c0.028,0.022,0.089,0.07,0.224,0.349c0.069-0.222-0.036-0.714-0.036-0.714l0.192-0.366l-0.283-0.708l-0.803,0.444
			l-2.64,2.997c0.101-0.025-0.901,0.33-1.228,0.752c0,0,0.688,0.133,0.752,0.594c-0.269,0.108-5.197,3.451-3.091,6.861
			c0.184,0.287,0.416,0.58,0.704,0.876c-0.501-0.966-0.588-1.883-0.504-2.65c0.141-1.28,0.763-2.147,0.763-2.147
			s-0.019,1.899,0.758,2.985c0.086,0.121,0.183,0.232,0.29,0.329c0,0-0.433-0.783-0.116-2.188c0.112-0.499,0.318-1.076,0.672-1.725
			c-0.221,1.036,0.715,1.774,0.944,1.978c-0.557-1.153-0.073-2.257-0.073-2.257s2.508,0.094,2.527,0.094l0.876-0.858l0.067,0.462
			L17.629,8L17.204,7.804z M14.159,6.301l0.805-0.976l-0.581,0.976l0.474,1.293L14.159,6.301z"/>
		<path class="st1" d="M4.994,9.826c0.269,0.483,0.903,0.616,1.272,0.651c-0.107-0.106-0.463-0.479-0.353-0.753
			c0,0,0.301,0.237,0.71,0.28c0,0-0.34-0.942,0.24-1.67C6.015,9.015,4.994,9.826,4.994,9.826z"/>
	</g>
	<g>
		<polygon class="st2" points="15.64,6.415 16.032,6.974 15.81,6.422 16.032,5.853 		"/>
		<path class="st2" d="M17.439,1.614c-0.076,0.122-0.154,0.382-0.187,0.486c-0.161-1.097-0.586-0.282-0.691-0.939l-0.353,0.273
			c-0.028,0.138-0.072,0.416-0.081,0.838c0,0-0.247-0.261-0.325-0.508c-0.031,0.154-0.078,0.459-0.088,0.917
			c0,0-0.276-0.292-0.361-0.567c-0.033,0.172-0.083,0.504-0.094,0.999c0,0-0.298-0.314-0.393-0.612
			c-0.037,0.189-0.092,0.554-0.105,1.096c0,0-0.346-0.367-0.441-0.705l-1.754,1.355c-0.116,0.138-0.663,0.695-0.865,1.532
			c0,0,0-0.591,0.047-0.773c-0.154,0.111-0.733,0.564-1.049,0.893c0,0,0.038-0.596,0.283-0.935
			c-0.517,0.377-1.307,1.177-1.307,1.177c0.652-1.128,1.175-1.464,1.437-1.683C9.795,4.877,8.65,5.802,8.148,7.364
			c0,0,0.01-0.312,0.058-0.57L4.467,9.751c0,0,0.576,1.06,2.197,1.019l2.117-0.336c0,0-0.211-0.565-0.19-0.964
			c0.257,0.89,0.702,1.222,0.702,1.222s-1.188,0.157-1.188,0.157c0.215,0.78,0.688,2.975,2.836,4.007
			c-0.288-0.296-0.519-0.59-0.704-0.876c-1.292-2.004-0.309-3.69-0.208-3.924c0,0-0.753,0.249-0.96-0.361
			c1.013,0.796,3.407-2.207,2.905-3.169c1.001-0.79,1.692-0.906,1.692-0.906l2.777-2.844l0.803-0.444l0.283,0.708L17.439,1.614z
			 M6.549,10.49c0,0-0.113,0.004-0.282-0.012c-0.37-0.036-1.003-0.168-1.272-0.651c0,0,1.021-0.811,1.869-1.491
			c0.472-0.379,0.892-0.716,1.05-0.851c-2.164,2.096,0.437,2.688,0.437,2.688L6.549,10.49z"/>
		<polygon class="st2" points="16.201,9.275 17.144,8.88 17.077,8.417 		"/>
		<path class="st2" d="M11.2,10.059c0,0-0.622,0.867-0.763,2.147c0.136-0.915,0.603-1.473,0.603-1.473
			c0.076,1.075,0.586,1.887,0.918,2.311C11.181,11.958,11.2,10.059,11.2,10.059z"/>
		<path class="st2" d="M12.804,9.459c-0.354,0.649-0.56,1.226-0.672,1.725c0.028-0.079,0.269-0.752,0.515-0.999
			c0.32,0.903,1.101,1.252,1.101,1.252C13.519,11.233,12.584,10.495,12.804,9.459z"/>
	</g>
	<g>
		<polygon points="14.964,5.325 14.159,6.301 14.858,7.593 14.383,6.301 		"/>
		<path d="M13.803,5.773l2.64-2.997L13.667,5.62c0,0-0.691,0.117-1.692,0.906c0.501,0.963-1.892,3.965-2.905,3.169
			c0.207,0.61,0.96,0.361,0.96,0.361c-0.101,0.234-1.084,1.92,0.208,3.924c-2.106-3.41,2.822-6.753,3.091-6.861
			c-0.064-0.461-0.752-0.594-0.752-0.594C12.903,6.103,13.904,5.748,13.803,5.773z"/>
		<path d="M7.913,7.484c-0.158,0.134-0.578,0.472-1.05,0.851c-0.579,0.728-0.24,1.67-0.24,1.67c-0.409-0.043-0.71-0.28-0.71-0.28
			c-0.11,0.274,0.246,0.647,0.353,0.753c0.169,0.016,0.282,0.012,0.282,0.012l1.801-0.318C8.349,10.172,5.749,9.58,7.913,7.484z"/>
		<path d="M17.124,6.587c-0.036,0.42-0.417,0.812-0.417,0.812l-0.312-0.154l-0.259-0.694l1.12-2.34
			c0.08,0.157,0.122,0.315,0.122,0.315c0.163-0.321,0.186-0.645,0.162-0.907l0.209-0.438l-0.117-1.703
			c-0.057-0.228-0.279-0.456-0.557-0.544c-0.263-0.084-0.53-0.036-0.72,0.119l-3.814,2.949c-1.94,0.055-3.373,0.903-4.252,2.39
			L4.066,9.79c0,0,0.783,1.484,2.581,1.306l1.162-0.209c0.125,0.539,0.821,3.652,3.514,4.406c-0.456-0.877-1.046-2.439-0.467-3.719
			c0.772,2.476,1.902,2.407,1.902,2.407c-1.094-1.551-0.203-3.201-0.203-3.201c0.446,0.761,1.089,1.101,1.614,1.101
			c0,0-0.77-1.015-0.364-2.342l2.396,0.088l1.075-0.451l0.66-1.199l-0.518-0.236C17.58,7.009,17.124,6.587,17.124,6.587z
			 M12.26,4.271c-0.025,0.028-0.075,0.087-0.135,0.161c-0.085,0.028-0.256,0.091-0.422,0.201c0,0,0.241-0.025,0.202,0.096
			c-0.163-0.014-0.428,0.001-0.673,0.047C11.834,4.346,12.141,4.28,12.26,4.271z M17.629,8l-0.485,0.88l-0.942,0.395
			c-0.019-0.001-2.527-0.094-2.527-0.094s-0.484,1.104,0.073,2.257c0,0-0.78-0.349-1.101-1.252
			c-0.247,0.247-0.487,0.919-0.515,0.999c-0.316,1.405,0.116,2.188,0.116,2.188c-0.107-0.096-0.204-0.207-0.29-0.329
			c-0.333-0.424-0.842-1.236-0.918-2.311c0,0-0.467,0.557-0.603,1.473c-0.084,0.768,0.004,1.684,0.504,2.65
			c-2.149-1.032-2.621-3.227-2.836-4.007c0-0.001,1.188-0.157,1.188-0.157S8.848,10.36,8.591,9.47
			c-0.021,0.399,0.19,0.964,0.19,0.964L6.664,10.77c-1.621,0.041-2.197-1.019-2.197-1.019l3.738-2.957
			c-0.048,0.258-0.058,0.57-0.058,0.57C8.65,5.802,9.795,4.877,11.112,4.46c-0.263,0.219-0.785,0.554-1.437,1.683
			c0,0,0.789-0.8,1.307-1.177c-0.245,0.339-0.283,0.935-0.283,0.935c0.316-0.329,0.895-0.783,1.049-0.893
			c-0.047,0.182-0.047,0.773-0.047,0.773c0.201-0.837,0.748-1.394,0.865-1.532l1.754-1.355c0.094,0.338,0.441,0.705,0.441,0.705
			c0.013-0.542,0.067-0.907,0.105-1.096c0.095,0.298,0.393,0.612,0.393,0.612c0.011-0.496,0.061-0.827,0.094-0.999
			c0.085,0.275,0.361,0.567,0.361,0.567c0.01-0.459,0.058-0.763,0.088-0.917c0.079,0.247,0.325,0.508,0.325,0.508
			c0.009-0.422,0.053-0.7,0.081-0.838l0.353-0.273c0.106,0.656,0.531-0.159,0.691,0.939c0.033-0.104,0.111-0.364,0.187-0.486
			l0.09,1.426l-0.192,0.366c0,0,0.105,0.493,0.036,0.714c-0.135-0.279-0.196-0.327-0.224-0.349l-0.657,1.416l0.829-2.296
			l-0.092-0.466l-0.497,0.359L16.52,3.126c0.056,0.187,0.139,0.543,0.053,0.82c-0.087-0.188-0.193-0.329-0.292-0.433l-1.744,2.818
			l0.48,1.254l0.571,0.212c0.113-0.095,0.322-0.31,0.444-0.68c0.125,0.284,0.07,0.677,0.035,0.857l0.004,0.001
			c0,0,0,0.001-0.002,0.001l0.592,0.219l0,0l0.001,0l0.662-0.155l-1.084-0.701l-0.002-0.003l0.529,0.257
			c0.094-0.074,0.305-0.272,0.424-0.632c0.136,0.307,0.038,0.757,0.015,0.844h-0.002L17.629,8z M16.032,6.974L15.64,6.415
			l0.392-0.562l-0.221,0.57L16.032,6.974z"/>
	</g>
</g>
</svg>
