<?xml version="1.0" encoding="utf-8"?>
<!-- Generator: Adobe Illustrator 23.0.0, SVG Export Plug-In . SVG Version: 6.00 Build 0)  -->
<svg version="1.1" id="Layer_1" xmlns="http://www.w3.org/2000/svg" xmlns:xlink="http://www.w3.org/1999/xlink" x="0px" y="0px"
	 viewBox="0 0 24 16" style="enable-background:new 0 0 24 16;" xml:space="preserve">
<style type="text/css">
	.st0{fill:#FFFFFF;}
	.st1{fill:#A2A9AD;}
	.st2{fill:#CE0E2D;}
	.st3{fill:#011E41;}
</style>
<g>
	<g>
		<g>
			<path class="st0" d="M9.152,9.862c1.355,0,2.49-0.242,3.078-0.398c0.784-0.36,1.794-0.857,2.808-1.451
				c-0.853,0.323-3.551,1.285-5.463,1.285c-2.9,0-3.806-1.68-3.806-2.627c0-0.848,0.541-1.487,0.541-1.487S5.312,5.882,5.312,7.044
				C5.312,8.957,7.223,9.862,9.152,9.862z"/>
			<path class="st0" d="M10.267,10.757c-5.388,0-5.628-2.87-5.616-3.494C4.545,7.579,4.479,7.928,4.479,8.31
				c0,0,0.056,3.176,6.212,3.176c2.004,0,3.809-0.423,4.38-0.571c-0.858-0.087-1.621-0.206-2.257-0.326
				C12.388,10.656,11.537,10.757,10.267,10.757z"/>
			<path class="st0" d="M17.048,8.455c-0.175-0.368-0.687-0.431-1.142-0.143c-0.456,0.289-0.684,0.82-0.509,1.188
				c0.174,0.368,0.685,0.432,1.141,0.143C16.994,9.353,17.221,8.822,17.048,8.455z M16.446,9.525
				c-0.371,0.234-0.777,0.177-0.907-0.129c-0.131-0.306,0.064-0.744,0.435-0.979c0.37-0.234,0.775-0.177,0.907,0.13
				C17.011,8.852,16.817,9.29,16.446,9.525z"/>
			<polygon class="st0" points="12.487,9.825 12.483,9.696 12.369,9.838 12.192,9.861 12.302,9.921 12.192,10.065 12.381,9.966 
				12.512,10.059 12.488,9.905 12.664,9.805 			"/>
			<polygon class="st0" points="13.854,9.177 13.85,9.045 13.732,9.192 13.547,9.215 13.661,9.278 13.547,9.427 13.744,9.324 
				13.879,9.422 13.856,9.261 14.038,9.157 			"/>
			<polygon class="st0" points="14.849,9.283 14.845,9.162 14.738,9.295 14.57,9.317 14.674,9.375 14.57,9.51 14.748,9.416 
				14.872,9.505 14.851,9.36 15.015,9.265 			"/>
			<polygon class="st0" points="13.476,10.029 13.476,9.909 13.367,10.04 13.199,10.057 13.301,10.117 13.193,10.251 13.374,10.161 
				13.496,10.253 13.478,10.106 13.645,10.015 			"/>
			<polygon class="st0" points="14.461,10.167 14.46,10.046 14.35,10.179 14.181,10.195 14.284,10.255 14.178,10.389 14.357,10.298 
				14.479,10.39 14.461,10.244 14.628,10.152 			"/>
			<polygon class="st0" points="15.273,8.321 15.268,8.168 15.133,8.338 14.919,8.365 15.051,8.438 14.919,8.609 15.146,8.49 
				15.303,8.603 15.275,8.418 15.486,8.297 			"/>
			<polygon class="st0" points="16.615,7.525 16.492,7.748 16.748,7.579 16.977,7.697 16.894,7.477 17.129,7.306 16.865,7.359 
				16.819,7.175 16.692,7.396 16.428,7.453 			"/>
			<polygon class="st0" points="18.751,6.424 18.436,6.46 18.409,6.227 18.226,6.485 17.909,6.527 18.118,6.637 17.943,6.9 
				18.267,6.719 18.518,6.891 18.453,6.609 			"/>
			<polygon class="st0" points="17.079,10.284 17.078,10.099 16.908,10.301 16.649,10.328 16.808,10.419 16.642,10.625 
				16.919,10.487 17.106,10.627 17.079,10.402 17.337,10.261 			"/>
			<polygon class="st0" points="17.574,9.061 17.57,8.892 17.417,9.08 17.179,9.111 17.328,9.192 17.179,9.383 17.432,9.252 
				17.607,9.377 17.577,9.171 17.81,9.036 			"/>
			<polygon class="st0" points="18,7.859 17.995,7.673 17.83,7.878 17.572,7.912 17.732,7.999 17.572,8.208 17.846,8.064 
				18.036,8.201 18.004,7.977 18.257,7.83 			"/>
			<polygon class="st0" points="15.705,10.149 15.578,10.302 15.384,10.321 15.501,10.39 15.378,10.544 15.586,10.44 15.727,10.545 
				15.706,10.377 15.898,10.272 15.706,10.288 			"/>
			<polygon class="st0" points="12.17,3.388 11.543,6.239 12.773,5.44 			"/>
			<path class="st0" d="M16.614,4.7l-5.071,1.539c0,0,1.863,0.406,1.92,0.414C13.52,6.661,16.614,4.7,16.614,4.7z"/>
			<path class="st0" d="M12.53,7.815l-0.988-1.577v1.788C11.868,7.969,12.199,7.897,12.53,7.815z"/>
			<path class="st0" d="M9.626,8.195c0.056,0.001,0.113,0.002,0.172,0.002c0.161,0,0.324-0.005,0.49-0.015l1.255-1.942l-1.473,1.084
				L9.626,8.195z"/>
			<polygon class="st0" points="11.01,5.947 8.277,6.685 11.543,6.239 			"/>
			<path class="st0" d="M15.137,12.517l0.674,0.533l-0.502-0.802C15.235,12.31,15.178,12.391,15.137,12.517z"/>
			<path class="st0" d="M7.2,12.961l0.519-0.803c-0.03-0.01-0.062-0.019-0.098-0.024L7.2,12.961z"/>
		</g>
		<g>
			<path class="st1" d="M17.621,11.539l3.347-7.703c0,0-2.423,1.435-5.19,2.531l4.756-3.536l-2.993,0.515
				c-0.429-0.257-1.917-1.028-4.322-1.028c0,0-0.211,0.005-0.391,0.009c-0.088-0.26-0.507-1.489-0.507-1.489L11.553,2.43
				C7.17,2.994,3.759,5.582,3.759,8.375c0,1.248,0.536,2.89,3.002,3.777l-1.244,3.075l3.292-2.596
				c0.707,0.095,1.491,0.145,2.337,0.145c0.99,0,1.964-0.075,2.899-0.219l3.602,3.163l-1.229-3.708
				C16.416,12.012,17.141,11.778,17.621,11.539z M17.175,14.953l-3.039-2.701c-0.85,0.138-1.853,0.235-2.991,0.235
				c-0.909,0-1.714-0.056-2.424-0.158l-2.741,2.218l1.176-2.563C4.88,11.271,4.049,9.887,4.049,8.375
				c0-2.697,3.384-5.068,7.361-5.637L11.252,3.06L11.07,3.43l-0.867,1.766L7.562,6.28l2.847-0.809l1.866-3.869l0.347,1.02
				c0.198-0.009,0.397-0.014,0.597-0.014c2.387,0,3.807,0.793,3.807,0.793l-3.354,1.351l5.993-1.535l-5.392,3.739l0.111,0.305
				c3.144-1.086,5.967-2.73,5.967-2.73l-2.953,6.795c0,0-0.474,0.238-1.358,0.498L17.175,14.953z"/>
			<path class="st1" d="M8.917,8.149l0.235-0.512L7.776,7.258C7.776,7.258,7.385,7.957,8.917,8.149z"/>
			<path class="st1" d="M11.543,8.027V6.239l-1.255,1.942C10.693,8.157,11.114,8.103,11.543,8.027z"/>
			<path class="st1" d="M12.942,5.391L12.17,2.977l-1.223,2.92L7.621,6.729l2.328,0.57L9.502,8.192
				c0.04,0.001,0.081,0.002,0.123,0.003l0.444-0.872l1.473-1.084L8.277,6.685l2.733-0.738l0.532,0.292l0.627-2.851l0.603,2.052
				l-1.23,0.798L16.614,4.7c0,0-3.094,1.962-3.151,1.953c-0.057-0.008-1.92-0.414-1.92-0.414l0.988,1.577
				c0.438-0.108,0.879-0.236,1.317-0.376l-0.252-0.671l3.732-2.44L12.942,5.391z"/>
			<path class="st1" d="M15.308,12.249l0.502,0.802l-0.674-0.533c-0.015,0.044-0.027,0.094-0.038,0.15l1.016,0.802L15.6,12.101
				C15.483,12.144,15.386,12.185,15.308,12.249z"/>
			<path class="st1" d="M7.718,12.158L7.2,12.961l0.421-0.828c-0.027-0.004-0.056-0.007-0.087-0.007l-0.553,1.105l1.039-0.774
				C7.954,12.336,7.877,12.214,7.718,12.158z"/>
		</g>
		<g>
			<path class="st2" d="M16.043,3.373c0,0-1.128-0.549-3.328-0.477l0.101,0.297C13.059,3.165,14.384,3.039,16.043,3.373z"/>
			<path class="st2" d="M10.267,10.757c1.27,0,2.12-0.101,2.548-0.168c-1.287-0.243-2.056-0.492-2.056-0.492s0.594-0.23,1.472-0.633
				c-0.589,0.156-1.723,0.398-3.078,0.398c-1.93,0-3.84-0.905-3.84-2.817c0-1.163,0.999-1.861,0.999-1.861s-1.204,0.728-1.66,2.079
				C4.64,7.887,4.879,10.757,10.267,10.757z"/>
			<path class="st2" d="M9.576,9.298c1.911,0,4.61-0.962,5.463-1.285c0.816-0.477,1.636-1.017,2.343-1.598
				c0,0-4.118,2.247-7.538,2.247c-2.298,0-3.361-1.066-3.361-1.78c0-2.13,3.749-3.232,4.588-3.452l0.181-0.37
				C7.65,3.769,6.311,5.184,6.311,5.184S5.77,5.823,5.77,6.671C5.77,7.619,6.676,9.298,9.576,9.298z"/>
			<path class="st2" d="M10.691,11.486c-6.156,0-6.212-3.176-6.212-3.176c0,1.628,1.067,3.758,6.538,3.758
				c3.88,0,5.946-1.029,5.946-1.029c-0.669-0.019-1.303-0.064-1.892-0.123C14.5,11.063,12.695,11.486,10.691,11.486z"/>
			<path class="st2" d="M15.974,8.417c-0.371,0.234-0.566,0.673-0.435,0.979c0.13,0.306,0.536,0.364,0.907,0.129
				c0.371-0.234,0.565-0.673,0.435-0.978C16.749,8.24,16.345,8.183,15.974,8.417z"/>
		</g>
		<g>
			<path class="st3" d="M17.397,11.327l2.953-6.795c0,0-2.823,1.644-5.967,2.73l-0.111-0.305l5.392-3.739l-5.993,1.535l3.354-1.351
				c0,0-1.42-0.793-3.807-0.793c-0.199,0-0.398,0.005-0.597,0.014l-0.347-1.02l-1.866,3.869L7.562,6.28l2.642-1.084L11.07,3.43
				c-0.839,0.22-4.588,1.322-4.588,3.452c0,0.715,1.063,1.78,3.361,1.78c3.42,0,7.538-2.247,7.538-2.247
				c-0.707,0.581-1.527,1.121-2.343,1.598c-1.015,0.594-2.025,1.091-2.808,1.451c-0.878,0.403-1.472,0.633-1.472,0.633
				s0.77,0.249,2.056,0.492c0.636,0.12,1.399,0.239,2.257,0.326c0.589,0.06,1.223,0.104,1.892,0.123c0,0-2.066,1.029-5.946,1.029
				c-5.471,0-6.538-2.129-6.538-3.758c0-0.382,0.066-0.731,0.172-1.047c0.456-1.351,1.66-2.079,1.66-2.079S7.65,3.769,11.252,3.06
				l0.158-0.321c-3.977,0.57-7.361,2.941-7.361,5.637c0,1.511,0.831,2.896,3.108,3.608l-1.176,2.563l2.741-2.218
				c0.71,0.103,1.515,0.158,2.424,0.158c1.139,0,2.141-0.097,2.991-0.235l3.039,2.701l-1.136-3.128
				C16.924,11.565,17.397,11.327,17.397,11.327z M16.043,3.373c-1.659-0.333-2.983-0.207-3.227-0.179l-0.101-0.297
				C14.914,2.823,16.043,3.373,16.043,3.373z M8.917,8.149C7.385,7.957,7.776,7.258,7.776,7.258l1.376,0.378L8.917,8.149z
				 M12.53,7.815c-0.332,0.082-0.662,0.153-0.988,0.212c-0.428,0.076-0.849,0.13-1.255,0.154c-0.166,0.01-0.329,0.015-0.49,0.015
				c-0.059,0-0.116-0.001-0.172-0.002C9.584,8.194,9.542,8.193,9.502,8.192l0.447-0.893l-2.328-0.57l3.326-0.832l1.223-2.92
				l0.772,2.414l4.384-1.062l-3.732,2.44l0.252,0.671C13.41,7.58,12.969,7.707,12.53,7.815z M12.512,10.059l-0.131-0.094
				l-0.189,0.099l0.11-0.144l-0.11-0.06l0.178-0.023l0.114-0.142l0.004,0.129l0.177-0.02l-0.176,0.1L12.512,10.059z M18.226,6.485
				l0.182-0.259l0.027,0.234l0.316-0.036l-0.298,0.185l0.065,0.281l-0.25-0.172L17.943,6.9l0.176-0.263l-0.209-0.11L18.226,6.485z
				 M17.572,7.912l0.258-0.033l0.165-0.206L18,7.859l0.257-0.028l-0.253,0.147l0.032,0.224l-0.189-0.137l-0.274,0.144l0.16-0.209
				L17.572,7.912z M17.179,9.111l0.238-0.031l0.153-0.189l0.004,0.17l0.236-0.026l-0.233,0.135l0.03,0.207l-0.175-0.126
				l-0.253,0.131l0.149-0.191L17.179,9.111z M16.692,7.396l0.127-0.221l0.047,0.185l0.264-0.053l-0.235,0.171l0.083,0.22
				l-0.229-0.118l-0.255,0.169l0.122-0.223l-0.187-0.073L16.692,7.396z M13.496,10.253l-0.121-0.091l-0.181,0.09l0.108-0.134
				l-0.102-0.06l0.168-0.017l0.11-0.131v0.12l0.169-0.014l-0.167,0.092L13.496,10.253z M13.879,9.422l-0.135-0.098l-0.198,0.103
				l0.114-0.149l-0.114-0.063l0.185-0.023l0.118-0.147l0.004,0.132l0.184-0.02l-0.182,0.104L13.879,9.422z M14.479,10.39
				l-0.121-0.092l-0.18,0.091l0.106-0.134l-0.103-0.06l0.168-0.017l0.11-0.132l0.001,0.121l0.167-0.016l-0.167,0.093L14.479,10.39z
				 M14.872,9.505l-0.123-0.088L14.57,9.51l0.104-0.135L14.57,9.317l0.168-0.022l0.107-0.133l0.004,0.121l0.167-0.018L14.851,9.36
				L14.872,9.505z M15.146,8.49l-0.227,0.118l0.132-0.171l-0.132-0.073l0.214-0.027l0.135-0.17l0.005,0.153l0.212-0.024
				l-0.211,0.121l0.028,0.185L15.146,8.49z M15.727,10.545l-0.141-0.105l-0.208,0.104l0.123-0.154l-0.118-0.069l0.194-0.019
				l0.127-0.153l0.001,0.139l0.193-0.016l-0.192,0.105L15.727,10.545z M15.396,9.499C15.221,9.131,15.45,8.6,15.906,8.311
				c0.456-0.288,0.967-0.224,1.142,0.143c0.173,0.368-0.054,0.898-0.511,1.188C16.081,9.931,15.57,9.867,15.396,9.499z
				 M16.919,10.487l-0.277,0.138l0.166-0.206l-0.159-0.091l0.259-0.027l0.17-0.202l0.001,0.186l0.258-0.023l-0.258,0.141
				l0.027,0.225L16.919,10.487z M6.981,13.231l0.553-1.105c0.031,0.001,0.06,0.003,0.087,0.007c0.036,0.006,0.068,0.014,0.098,0.024
				c0.159,0.056,0.235,0.178,0.301,0.299L6.981,13.231z M16.115,13.469l-1.016-0.802c0.011-0.056,0.024-0.105,0.038-0.15
				c0.041-0.126,0.098-0.207,0.172-0.268c0.078-0.064,0.174-0.104,0.292-0.148L16.115,13.469z"/>
		</g>
	</g>
	<g>
		<path class="st3" d="M17.594,12.38c0,0.145-0.114,0.258-0.261,0.258c-0.146,0-0.263-0.114-0.263-0.258
			c0-0.142,0.117-0.255,0.263-0.255C17.481,12.125,17.594,12.239,17.594,12.38z M17.136,12.38c0,0.114,0.084,0.204,0.199,0.204
			c0.112,0,0.194-0.09,0.194-0.202c0-0.114-0.082-0.205-0.196-0.205C17.22,12.176,17.136,12.268,17.136,12.38z M17.293,12.514
			h-0.059v-0.255c0.023-0.005,0.056-0.008,0.098-0.008c0.048,0,0.07,0.008,0.089,0.019c0.014,0.011,0.025,0.031,0.025,0.056
			c0,0.028-0.022,0.05-0.053,0.059v0.003c0.025,0.009,0.039,0.028,0.047,0.062c0.008,0.039,0.013,0.054,0.019,0.064h-0.064
			c-0.008-0.009-0.012-0.033-0.02-0.062c-0.005-0.028-0.02-0.04-0.053-0.04h-0.028V12.514z M17.294,12.369h0.028
			c0.033,0,0.059-0.011,0.059-0.037c0-0.023-0.017-0.039-0.054-0.039c-0.016,0-0.026,0.002-0.033,0.003V12.369z"/>
	</g>
</g>
</svg>
