<svg id="Layer_1" data-name="Layer 1" xmlns="http://www.w3.org/2000/svg" viewBox="0 0 267.67 229.35"><defs><style>.cls-1{fill:#f3bd48;}.cls-2{fill:#fff;}</style></defs><path class="cls-1" d="M315.91,165.48c12-51.73-23.41-92.26-75.59-92.26-33.29,0-60,23.9-76.08,24.62-6.73.3-14.82-11.06-14.82-11.06-9.11,6.83-2.44,19.36-2.44,19.36a45.18,45.18,0,0,0-28.67-8.37C95.69,100,90.16,116.24,90.16,116.24,77,121.12,72.42,128.12,72.42,128.12c-8.15,5.86-12.87,5.3-12.87,5.3,3.1,17,20.84,16.2,20.84,16.2-7,13.51-29.79,15.63-29.79,15.63,8.14,13,27.51,11.88,27.51,11.88,6.63.71,15.64-2.87,20.08-4.88A23.63,23.63,0,0,0,93.83,175c-8.55,6-8.36,17-12.77,24.8-1.69,3.51-6.62,5.19-9.33,7.34a36.31,36.31,0,0,0,9.47,3.27c-.08,5.45,2.56,18.65,4.32,23.92-6.35-4.72-16.2-2.59-16.2-2.59,10.92,13.58,5.78,22,11.26,34.6,1.84,6.25,7.55,11.62,13.28,15.43,14.86,6.69,25.12-2.1,25.12-2.1-1.71,8.23-17.17,14.41-17.17,14.41,3.62,4,12.51,6.95,17.83,7.31,21,1.38,22.07-21.47,45.34-19.09,13.5,1.38,25.86,12.72,48.39,12.72,56.34,0,92.93-57,97.37-87.72H246.87s-7.83,25.61-26.81,25.61c-19.66,0-25.88-16.85-25.88-32.05,0-23.1,19.19-66.75,50.49-66.75,14.76,0,17,16.19,11.81,31.34ZM103.38,218.1c-5.13-1-7.71-4.18-10.94-8.27l-.4-.69c3.8-1.24,6-5.58,9.34-7.68,5.23-1.62,6.86,5.79,16.83,8.94,2.85,1.43,4.55,1.67,7.5,3.1C118.82,217.84,112.41,220.67,103.38,218.1Z" transform="translate(-50.6 -73.22)"/><path class="cls-2" d="M123.22,133c-3.51-.57-7.59-2.27-11.67-1.25-7.24,1-11.88,8.15-18.89,9.51-7.82,2.94-19.36,3.39-25.47-3.62,0-.34-.56-.57-.46-.91,10-1.13,15.17-12.34,24.9-14.15,11.66-4.3,23.55.9,31,9.62C122.64,132.55,123.1,132.67,123.22,133Z" transform="translate(-50.6 -73.22)"/><path class="cls-2" d="M101.48,259.88c12,6.91,20.94-6.45,33.16-1.92v.45c-9.5,3.51-13.69,13.92-22.41,18.45A18,18,0,0,1,97,276.63c-10.63-5.77-13.8-18.56-14.37-30.33-.45-2.83-1.69-5.31-2.61-8C90.73,241.77,90.84,256.37,101.48,259.88Z" transform="translate(-50.6 -73.22)"/><path class="cls-2" d="M310.45,159c8.36-37.3-19.15-79.36-70-79.61-31.06-.15-56.64,24.7-76.85,24.7-5.14,0-9.47-3.13-12.49-7,.9,11.09,11.2,20.37,21.05,24.11-5,.33-9.29-1.59-13.7-2.61-13.24-3.62-22.64-16.3-37.8-15-10.64-.34-20,6.11-25.24,14.94a18.7,18.7,0,0,1,8.94-4.53c7.81-1.36,14.6,2.15,19.69,7.47,6.34,10.07,13.36,19.81,23.77,26.83-7.47,0-14-2.83-20.59-5.09-13.48-3.86-29.44-2.16-39.62,7.46-5.21,8.49-13.93,15.4-23.54,17.43v.35l2.82,1.24c11.1,4.75,23.32.11,32.6-5.67,6.45-2,14.15-.9,18.68,4.2,3.16,5.43,9.06,10.86,14.26,14.82-1.36.57-2.72-.57-4.3-.57-8.94-4.41-22.41-10.41-31.47-2.14-8.48,6.45-4.18,18.9-13.24,25,6.34.56,10-4.08,13.58-8.6,9.06-6.68,14.83,5.32,22.07,8.15,7.7,3.73,17.89,2.48,23.43,10.41-5.89,1.13-11.89,2.15-17,5.21-7.81,4.86-19.24,5.66-27.73,1.58-4.41-2.38-7.47-5.66-10.4-9.74a.66.66,0,0,1-.12.46c.57,16.75,6.79,35,24.11,40.86,11.77,5.43,24.44-3.4,36,2.26a24.87,24.87,0,0,0-15.4,10c-6,7.81-5.88,18.56-13.35,25.24-1.36,1.24-3.39,1.92-4.75,2.94a15.66,15.66,0,0,0,4.64,1.25c8.26,1.35,15.28-4,19.92-10.19,6.68-6.45,16.82-10.39,24.9-9.85,16.31,1.1,28.47,13,50,13,42.89.16,80.74-40.71,88.79-74.22h-50.6s-9.21,25.64-31.49,25.64c-27.8,0-32.66-26-32.66-38.87,0-30.27,23.74-73.55,57.29-73.55,15.91,0,25.28,16.25,20.1,31.72Z" transform="translate(-50.6 -73.22)"/><path class="cls-2" d="M157.06,295.64a5.62,5.62,0,1,1,5.64,5.78A5.61,5.61,0,0,1,157.06,295.64Zm5.64,6.93a6.91,6.91,0,1,0-7-6.93A6.9,6.9,0,0,0,162.7,302.57Zm-1.46-6.38h1.38l2.11,3.46h1.35l-2.26-3.51a2.08,2.08,0,0,0,2.06-2.2c0-1.57-.93-2.27-2.81-2.27h-3v8h1.21Zm0-1v-2.47h1.65c.84,0,1.73.19,1.73,1.18,0,1.22-.91,1.29-1.94,1.29Z" transform="translate(-50.6 -73.22)"/></svg>