<?xml version="1.0" encoding="utf-8"?>
<!-- Generator: Adobe Illustrator 23.0.4, SVG Export Plug-In . SVG Version: 6.00 Build 0)  -->
<svg version="1.1" id="Layer_1" xmlns="http://www.w3.org/2000/svg" xmlns:xlink="http://www.w3.org/1999/xlink" x="0px" y="0px"
	 viewBox="0 0 388 364" style="enable-background:new 0 0 388 364;" xml:space="preserve">
<style type="text/css">
	.st0{fill:#FFFFFF;}
</style>
<g id="TBL-Black">
	<g>
		<path class="st0" d="M384.58,165.02c0-38.66-24.03-76.76-66.68-100.17l-16.34,12.97c29.15,18.34,46.3,45.75,46.3,76.85
			c0,72.59-89.71,138.35-189.54,138.35c-10.25,0-20.3-0.75-30-2.19l-33.69,24.93c21.27,7.2,45.01,11.02,69.82,11.02
			C282.95,326.76,384.58,246.75,384.58,165.02"/>
		<path class="st0" d="M19.7,192.29c0-75.06,93.93-138.34,189.54-138.34c0.66,0,1.31,0.01,1.97,0.02l-92.43,103.41l53.15-8.41
			L67.21,250.24l42.47-7.67L80.01,276.5C43.97,259.43,19.7,230,19.7,192.29 M233.84,192.01l-60.97,11.92L308.11,92.81l-62.96,8.44
			L367.52,4.19L225.06,41.68c-1.88-0.04-3.76-0.07-5.67-0.07c-116.75,0-215.97,79.34-215.97,163.05c0,41.07,22.12,73.74,56.41,94.91
			L7.19,359.81L233.84,192.01L233.84,192.01z"/>
		<path class="st0" d="M330.56,281.55c0-2.85,2.3-5.16,5.15-5.16c2.84,0,5.15,2.31,5.15,5.16c0,2.85-2.3,5.16-5.15,5.16
			C332.86,286.7,330.56,284.39,330.56,281.55L330.56,281.55z M342.28,281.55c0-3.63-2.93-6.57-6.56-6.57
			c-3.63,0-6.57,2.94-6.57,6.57c0,3.63,2.93,6.56,6.57,6.56C339.35,288.11,342.28,285.17,342.28,281.55L342.28,281.55z"/>
		<path class="st0" d="M336.19,280.84h-1.77v-1.64h1.77c0.46,0,0.82,0.36,0.82,0.82C337,280.48,336.64,280.84,336.19,280.84
			L336.19,280.84z M338.41,285.3l-1.48-3.18c0.86-0.31,1.48-1.13,1.48-2.1c0-1.23-0.99-2.23-2.22-2.23h-3.17v7.5h1.4v-3.04h1.01
			l1.43,3.04H338.41L338.41,285.3z"/>
	</g>
</g>
</svg>
