<svg id="Layer_1" xmlns="http://www.w3.org/2000/svg" viewBox="0 0 24 16"><style>.st2{fill:#124734}.st3{fill:#eba900}.st4{fill:#aa182c}</style><path d="M12.888 4.454c-2.88.093-5.47.811-5.47.811l-.059-.382-.264.446s-1.302.477-2.161.929a30.073 30.073 0 0 1 1.996-.615c-.09.194-.177.376-.268.566l.488-.436.352.189-.049-.421c.001 0 2.905-.808 5.435-1.087z" fill="#fff"/><path d="M23.958 3.756s-.85-.283-1.586-.424c.01-.002.822-.651.822-.651s-3.277-.865-7.176-.607c0 0-.567-1.855-3.19-1.855-1.951 0-3.065 1.224-3.411 2.176-3.679.823-6.479 2.706-6.479 2.706l.676.51C1.883 6.532.103 7.998.103 7.998s.174.878 1.238 2.277c0 0 .712.544 2.587 1.253 0 0 .358-.09.537-.182.257.086.522.159.784.207-.011.236-.079.574.357.975l-.317.168s.392.97 2.548 1.48c.824-.199 4.571-.907 5.864 1.45l6.518-6.411h-1.388l5.127-5.459zm-4.865 5.818l-5.315 5.504s-1.396-2.262-5.933-1.272c0 0-1.591-.424-2.017-.99l.381-.222c-.282-.103-.633-.471-.633-.655 0-.044.042-.079.111-.079.179 0 .554.225 1.344.225.881 0 1.638-.174 1.638-.684 0-.352-.966-.366-.966-.627 0-.338 1.422-.521 2.146-.521 0 0-.996-.061-1.876-.061-1.469 0-1.856.242-1.856.415 0 .237.643.301.643.513 0 .123-.351.16-.665.16-.858 0-1.662-.319-1.662-.319s-.252.141-.485.195c0 0-1.619-.63-2.356-1.143 0 0-.795-1.025-1.066-1.874 0 0 1.919-1.552 3.771-2.463l-.72-.543s2.956-1.806 6.096-2.425c0 0 .688-2.049 2.982-2.049 2.373 0 2.862 1.852 2.862 1.852s2.44-.225 6.003.489l-.66.509s1.061.221 1.854.522l-4.871 5.545h1.25z" fill="#ddc9a3"/><path class="st2" d="M15.11 14.848a.389.389 0 1 0 0 .777.389.389 0 0 0 0-.777zm0 .693a.305.305 0 1 1 0-.61.305.305 0 0 1 0 .61z"/><path class="st2" d="M15.269 15.146a.133.133 0 0 0-.132-.132h-.187v.444h.083v-.18h.059l.084.18h.092l-.088-.188a.13.13 0 0 0 .089-.124zm-.131.049h-.104v-.097h.104c.027 0 .049.022.049.048a.05.05 0 0 1-.049.049z"/><path class="st3" d="M14.777 3.133a23.756 23.756 0 0 0-4.333.254 2.203 2.203 0 0 0 .004.57c1.366-.146 2.871-.195 4.376-.036a2.207 2.207 0 0 0-.047-.788zM12.634 5.864c.813 0 1.522-.44 1.905-1.094a49.427 49.427 0 0 0-3.35.553c.387.337.892.541 1.445.541zM12.634 1.45a2.207 2.207 0 0 0-2.19 1.936s1.107-.498 4.118-.802a2.206 2.206 0 0 0-1.928-1.134z"/><g><path class="st4" d="M14.777 3.133a2.205 2.205 0 0 1 .047.787c.957.101 1.915.287 2.836.586a33.72 33.72 0 0 0-3.122.264 2.205 2.205 0 0 1-3.351.554c-2.13.425-3.627.853-3.627.853 1.055.047 1.651.292 1.651.292-2.727.552-5.263 1.602-6.086 1.962.197.313.453.679.453.679l-.407.503c.728.132 1.63.055 1.63.055l1.353-.828 1.061.319.32-.437h-.35l.699-1.127.588 1.126h-.263l.178.389.733-.13.312-.398h-.279l.417-.641h-.314l.66-1.117.563 1.153h-.249l.378.673h-.298l.61 1.112.61-.857h-.418l.63-.949h-.405l.91-1.561.788 1.581h-.328l.538.928h-.38l.521 1.152.883-1.443h-.487l.721-1.174h-.443l.966-1.962 1.013 2.055h-.356l.653 1.08h-.446l.5 1.07.816-1.242h-.438l.947-1.365h-.509l1.517-2.094.8 1.44 1.701-2.093c-1.961-.73-4.196-1.122-6.447-1.195zM10.427 3.657c0-.092.006-.182.017-.271-2.051.314-3.964.901-5.516 1.742 0 0 2.396-.838 5.52-1.171a2.302 2.302 0 0 1-.021-.3z"/></g><path class="st2" d="M22.713 4.029c-.793-.301-1.854-.522-1.854-.522l.66-.509c-3.563-.714-6.003-.489-6.003-.489S15.028.657 12.654.657c-2.294 0-2.982 2.049-2.982 2.049-3.14.62-6.096 2.426-6.096 2.426l.72.543C2.444 6.585.525 8.137.525 8.137c.271.849 1.066 1.874 1.066 1.874.737.513 2.356 1.143 2.356 1.143.233-.054.485-.195.485-.195s.804.319 1.662.319c.314 0 .665-.038.665-.16 0-.212-.643-.276-.643-.513 0-.173.387-.415 1.856-.415.88 0 1.876.061 1.876.061-.724 0-2.146.184-2.146.521 0 .261.966.275.966.627 0 .51-.757.684-1.638.684-.79 0-1.164-.225-1.344-.225-.069 0-.111.034-.111.079 0 .183.351.552.633.655l-.381.222c.427.566 2.017.99 2.017.99 4.536-.99 5.933 1.272 5.933 1.272l5.315-5.504h-1.25l4.871-5.543zm-5.508 4.414l-.815 1.242-.5-1.07h.446l-.653-1.08h.356L15.026 5.48l-.966 1.961h.443l-.721 1.174h.487l-.883 1.443-.521-1.152h.38l-.538-.928h.328l-.788-1.581-.91 1.561h.405l-.63.949h.418l-.61.857-.61-1.114h.298l-.378-.673h.249l-.563-1.153-.66 1.117h.314l-.417.641h.279l-.312.397-.733.131-.178-.389h.263l-.587-1.126-.7 1.127h.349l-.32.437-1.061-.318-1.352.828s-.902.077-1.63-.055l.407-.504s-.256-.366-.453-.679c.823-.359 3.358-1.41 6.086-1.962 0 0-.597-.245-1.651-.292 0 0 1.497-.429 3.629-.854a48.91 48.91 0 0 1 3.35-.553 34.07 34.07 0 0 1 3.122-.264 13.932 13.932 0 0 0-2.836-.586c-1.505-.159-3.01-.11-4.376.036-3.124.333-5.52 1.171-5.52 1.171 1.551-.84 3.464-1.427 5.515-1.74a2.206 2.206 0 0 1 4.118-.802c-3.011.304-4.118.802-4.118.802a23.745 23.745 0 0 1 4.333-.254c2.251.073 4.486.465 6.446 1.198l-1.701 2.093-.8-1.44-1.517 2.094h.509l-.947 1.365h.438zM7.502 5.962l-.352-.189-.488.436c.091-.19.178-.372.268-.566 0 0-.895.234-1.996.614.859-.451 2.161-.929 2.161-.929l.264-.446.059.382s2.591-.718 5.47-.811c-2.529.279-5.434 1.087-5.435 1.087l.049.422z"/></svg>