<?xml version="1.0" encoding="utf-8"?>
<!-- Generator: Adobe Illustrator 23.0.2, SVG Export Plug-In . SVG Version: 6.00 Build 0)  -->
<svg version="1.1" id="Layer_1" xmlns="http://www.w3.org/2000/svg" xmlns:xlink="http://www.w3.org/1999/xlink" x="0px" y="0px"
	 viewBox="0 0 214 238.8" style="enable-background:new 0 0 214 238.8;" xml:space="preserve">
<style type="text/css">
	.st0{fill:#FFFFFF;}
	.st1{fill:#00488D;}
</style>
<title>Toronto Maple Leafs dark logo</title>
<g>
	<path class="st0" d="M213.2,93.1c-3.2-1.2-6.2-2-9.3-2.5c-0.2,0-0.4-0.3-0.3-0.5c2.5-5,4.1-10.8,5.3-17.1c0.1-0.3-0.2-0.5-0.5-0.4
		c-5.6,1.5-12.1,4.1-17.5,6.7c-0.2,0.1-0.4,0-0.5-0.2c-0.8-3.5-1.7-7.4-3.7-10.8c-0.1-0.2-0.4-0.2-0.5-0.1
		c-5.7,4.1-10.8,8.6-15.2,13.6c-0.2,0.2-0.5,0.2-0.6-0.1c-1.1-1.9-2.6-3.6-4.6-5c-0.2-0.1-0.4-0.1-0.5,0.1
		c-7.3,9-16.5,19.3-28.3,27.8c-0.2,0.2-0.6-0.1-0.5-0.4c2.7-8.8,6.7-17.2,10.7-24.9c0.1-0.2,0-0.5-0.2-0.5c-1.7-0.4-3.9-0.6-6-0.7
		c-0.3,0-0.4-0.3-0.3-0.6c5-7.4,8.8-16.4,11.2-24.5c0.1-0.2-0.1-0.5-0.4-0.5c-4.2,0.2-9.2,1.1-13.4,2.6c-0.3,0.1-0.5-0.1-0.5-0.4
		c1.2-7,0.7-14.8-0.7-22.1c0-0.2-0.3-0.4-0.5-0.3c-2.9,1.1-6.3,2.8-9.4,4.7c-0.3,0.2-0.6,0-0.5-0.3c0.5-6.6-0.3-13.9-1.7-19.7
		c0-0.2-0.3-0.3-0.4-0.2c-2.1,0.7-4.7,2.1-7.1,3.5c-0.2,0.1-0.5,0-0.5-0.2c-2.3-6.6-5.9-13.1-9.8-19.5c-0.1-0.2-0.5-0.2-0.6,0
		C102.8,7,99.1,13.4,96.9,20c-0.1,0.2-0.3,0.3-0.5,0.2c-2.4-1.4-4.9-2.8-7.1-3.5c-0.2-0.1-0.4,0-0.4,0.2c-1.4,5.9-2.1,13.1-1.7,19.7
		c0,0.3-0.3,0.5-0.5,0.3c-3.1-1.9-6.4-3.6-9.4-4.7c-0.2-0.1-0.4,0.1-0.5,0.3c-1.3,7.3-1.9,15.1-0.7,22.1c0,0.3-0.2,0.5-0.5,0.4
		c-4.2-1.4-9.2-2.4-13.4-2.6c-0.2,0-0.4,0.2-0.4,0.5c2.4,8.1,6.2,17.1,11.2,24.5c0.2,0.2,0,0.5-0.3,0.6c-2.1,0.1-4.3,0.3-6,0.7
		c-0.2,0.1-0.3,0.3-0.2,0.5c4,7.7,8,16.1,10.7,24.9c0.1,0.3-0.2,0.5-0.5,0.3c-10.5-7.3-20.6-18.1-28.4-27.8
		c-0.1-0.1-0.3-0.2-0.5-0.1c-2,1.4-3.4,3.1-4.6,5c-0.1,0.2-0.4,0.2-0.6,0.1c-4.4-5-9.5-9.5-15.2-13.6c-0.2-0.1-0.4-0.1-0.5,0.1
		c-1.9,3.4-2.9,7.3-3.7,10.8c-0.1,0.2-0.3,0.3-0.5,0.2c-5.4-2.6-11.8-5.2-17.5-6.7c-0.3-0.1-0.5,0.2-0.5,0.4
		c1.2,6.3,2.8,12,5.3,17.1c0.1,0.2,0,0.5-0.3,0.5C7,91.1,4,91.9,0.8,93.1c-0.2,0.1-0.3,0.3-0.2,0.5c3.8,6.5,8.1,11.8,13.1,16
		c0.2,0.2,0.2,0.5,0,0.6c-2,1.2-3.9,2.7-5.5,4.3c-0.1,0.1-0.1,0.4,0,0.5c6.3,6.2,13.3,11.8,20.8,16.7c0.2,0.1,0.2,0.5,0,0.6
		c-2.8,2.1-5.2,4.4-7.3,6.9c-0.1,0.2-0.1,0.4,0,0.5c5.4,4.8,11.7,8.7,18.9,11.7c0.3,0.1,0.3,0.5,0.1,0.6c-2.6,1.9-4.7,4.1-6.6,6.4
		c-0.2,0.2-0.1,0.5,0.1,0.6c5.2,2.7,11.4,4.4,18,5.6c0.3,0.1,0.3,0.5,0,0.6c-8.3,2.6-16,5.9-23.3,10c-0.2,0.1-0.3,0.5,0,0.6
		c5.4,4,10.8,7.5,17.2,9.9c0.3,0.1,0.3,0.5,0.1,0.6c-8.7,7.1-15.8,15.2-22,24.1c-0.2,0.3,0,0.6,0.4,0.6c8.9-1.1,17.1-2.5,24.2-4.5
		c0.3-0.1,0.6,0.2,0.4,0.5c-1.5,3-2.9,6.3-4.1,9.7c-0.1,0.3,0.1,0.5,0.4,0.5c8-0.9,15.2-1.9,21-3.2c0.3-0.1,0.6,0.3,0.4,0.6
		c-2.5,3.7-4.2,7.8-5.6,12.2c-0.1,0.3,0.2,0.5,0.4,0.5c14-2.7,26.7-6.7,38-12.1c0.3-0.1,0.7,0.1,0.7,0.4c0.7,10,4.5,17,9.7,22.6
		c0.2,0.2,0.5,0.2,0.7,0l7.3-6.8c0.2-0.2,0.2-0.5,0-0.8c-1.4-1.7-8.1-9.2-6.9-15c0.1-0.7,0.9-1,1.5-0.8c8.4,3.8,25.9,9.6,39.6,12.3
		c0.3,0.1,0.5-0.2,0.4-0.5c-1.4-4.4-3.1-8.5-5.6-12.2c-0.2-0.3,0.1-0.6,0.4-0.6c5.8,1.3,13.1,2.3,21,3.2c0.3,0,0.5-0.2,0.4-0.5
		c-1.3-3.4-2.6-6.6-4.1-9.7c-0.1-0.3,0.1-0.6,0.4-0.5c7.1,1.9,15.3,3.3,24.2,4.5c0.3,0,0.5-0.3,0.4-0.6c-6.2-8.9-13.3-17-22-24.1
		c-0.2-0.2-0.2-0.5,0.1-0.6c6.4-2.5,11.8-5.9,17.2-9.9c0.2-0.2,0.2-0.5,0-0.6c-7.3-4.1-14.9-7.4-23.3-10c-0.3-0.1-0.3-0.5,0-0.6
		c6.5-1.2,12.8-2.9,18-5.6c0.2-0.1,0.3-0.4,0.1-0.6c-1.9-2.3-4-4.5-6.6-6.4c-0.2-0.2-0.2-0.5,0.1-0.6c7.2-3,13.5-6.9,18.9-11.7
		c0.2-0.1,0.2-0.4,0-0.5c-2.1-2.5-4.5-4.7-7.3-6.9c-0.2-0.2-0.2-0.5,0-0.6c7.5-4.9,14.4-10.5,20.8-16.7c0.1-0.1,0.2-0.4,0-0.5
		c-1.6-1.6-3.5-3-5.5-4.3c-0.2-0.1-0.2-0.4,0-0.6c5-4.2,9.4-9.5,13.1-16C213.6,93.5,213.5,93.2,213.2,93.1z"/>
	<g>
		<g>
			<path class="st1" d="M105.6,94c0.1,0,0.1,0.1,0.1,0.2c0.1,2.8,0.1,5.4,0.2,7.8c0,0.1,0.1,0.2,0.2,0.2l2,0h0h0c0,0,0.1,0,0.1-0.1
				c0,0,0.1-0.1,0.1-0.1c-0.1-1.8-0.1-3.5-0.2-5.3c0-0.1,0-0.2,0.1-0.2c9.4-7.1,16.8-15.4,20.4-22.8l-0.1-0.1
				c-4.4,7.3-11.2,14.3-20.3,20.8c-0.1,0-0.1,0-0.1-0.1c-0.4-11.2-0.3-20.4,0-28.2c0-1,0.1-2.1,0.1-3.4c0-0.1,0.1-0.2,0.2-0.3
				c4-2.3,7.7-5.2,11.2-9l-0.1-0.1c-3.9,3.4-7.5,5.9-11.1,7.7c0,0-0.1,0-0.1,0c0,0,0,0,0-0.1c0.2-13.8-0.1-29.9-0.8-37.4l-0.1,0
				c0.1,8,0,16.2-0.3,24.4c0,0,0,0.1-0.1,0.1c0,0,0,0-0.1,0c-3.3-3.5-6.4-7.4-9.1-11.6l-0.1,0.1c2.2,4.3,5.2,8.6,9,13.3
				c0.1,0.1,0.2,0.3,0.2,0.5c-0.2,5.3-0.4,10.6-0.7,15.6c-0.1,1.7-0.2,3.6-0.2,5.8c0,0.1-0.1,0.1-0.1,0.1c-4.2-3-8.1-7.1-11.3-12
				l-0.1,0.1c2.8,5.2,6.6,9.7,11.2,13.2c0.2,0.1,0.3,0.3,0.3,0.5c-0.2,6-0.2,12.2-0.2,18.2c0,0,0,0,0,0c0,0,0,0-0.1,0
				C97.2,86.9,90.3,80.3,85,72.4l-0.1,0.1C89.7,80.8,97.2,88.7,105.6,94z"/>
			<path class="st1" d="M45.4,116.1C45.5,116.1,45.5,116,45.4,116.1l1.4-0.7c0,0,0.1-0.1,0.1-0.1c0,0,0-0.1,0-0.1
				c-0.5-0.5-1-1-1.5-1.5c-0.1-0.1-0.2-0.3-0.2-0.4c-0.1-5.3-1.8-9.9-5.2-13.9l-0.1,0.1c2.5,3.8,3.8,7.9,3.8,12.5c0,0,0,0,0,0
				c-3.2-3.2-6.7-6.5-10.5-9.8c-0.1-0.1-0.2-0.3-0.2-0.4c0.3-3.9-0.3-7.5-2-10.9l-0.1,0c1.1,3.3,1.4,6.5,0.9,10l-0.1,0
				c-4.1-3.8-8.6-8.3-13.9-13.7l-0.1,0.1c4.4,5.2,9.6,10.8,15.8,16.9c0.9,0.9,1.9,1.8,3,2.9c-0.6,0-1.2,0.1-1.9,0.1
				c-4.3,0-8.7-1.1-13.3-3.3l-0.1,0.1c4.9,3,10.1,4.5,15.9,4.5c0.2,0,0.4,0,0.6,0c0.1,0,0.2,0,0.2,0.1c2.1,2.1,4.4,4.6,7.2,7.6
				C45.3,116,45.4,116.1,45.4,116.1z"/>
			<path class="st1" d="M181.4,102.3c4.8-4.8,9.3-9.7,13.4-14.5l-0.1-0.1c-4.9,4.9-9.9,9.8-15.3,14.9c0,0,0,0,0,0c0,0,0,0,0,0
				c-0.5-3.4-0.4-7.2,0.3-10.8l-0.1,0c-1.3,3.5-1.7,7.4-1.4,11.7c0,0.2-0.1,0.3-0.2,0.4c-4.1,3.6-7.9,7.3-11.4,10.9c0,0,0,0.1,0,0.1
				c0,0,0,0.1,0.1,0.1l1.4,0.7c0,0,0.1,0,0.1,0c0.1,0,0.1,0,0.2-0.1c1.3-1.4,2.7-3,4.4-4.7c0.1-0.1,0.3-0.2,0.5-0.2
				c5.8-0.1,10.7-1.4,15.2-4.1l-0.1-0.1c-4.3,1.9-8.2,2.8-12.1,2.8c-0.6,0-1.1,0-1.7-0.1c0,0,0,0,0,0c0,0,0,0,0-0.1
				C176.7,106.9,179,104.5,181.4,102.3z"/>
			<path class="st1" d="M112.1,199.3c-4.1,0-8,1.1-9.8,3.9c0,0-0.1,0-0.1,0c-1.2-0.8-5.3-3.3-10-3.3c-2.5,0-5.3,1.2-8.1,2.8
				c0,0-0.1,0-0.1,0c-7.4-1.1-14.6,0.3-21.5,3.1c7.3-1.8,14.2-3,19.6-2c0,0,0,0.1,0,0.1c-3.2,2-6.5,4.1-9.3,5.1
				c5.9-0.7,13.6-7.4,19.6-7.4c4,0,8,2.5,9.1,3.2c0,0,0,0.1,0,0.1c-0.3,0.9-0.4,2-0.3,3.2c1.9-5.4,5.9-6.6,11.3-6.6
				c4.2,0,8.3,1.5,13.2,2.6c0,0,0.1,0,0.1,0.1c3,2.6,8.4,5.2,11.1,5.6l1.1,0.2l-1.1-0.4c-2.2-0.9-6.2-2.8-8.2-4.8c0,0,0-0.1,0-0.1
				c2,0.3,4.2,0.6,6.5,0.6c8.7,0,12.6-1.5,15-2.6c-2.6,0.6-5.1,1.3-13.8,1.3C128.5,204.1,118.6,199.3,112.1,199.3z"/>
			<path class="st1" d="M110.2,133c2.4,0,4.3-1.8,4.3-4.2v-13.9c0-2.4-1.9-4.3-4.3-4.4c-0.9,0-1.8,0-2.7,0c-0.9,0-1.8,0-2.7,0
				c-2.3,0-4.3,2-4.3,4.4v13.9c0,2.3,1.8,4.2,4.2,4.2C105.1,133,107.2,132.9,110.2,133z M104.5,116c0-0.9,0.8-1.7,1.7-1.7
				c0.8,0,1.7,0,2.5,0c0.9,0,1.7,0.8,1.7,1.7v11.6c0,0.9-0.8,1.7-1.7,1.7c-0.9,0-1.7,0-2.5,0c-0.9,0-1.7-0.8-1.7-1.7V116z"/>
			<polygon class="st1" points="79.8,144.7 76.8,144.7 72.5,154.5 68.3,144.7 65.2,144.7 65.2,164.2 69.1,164.2 69.1,155.2 
				72.5,163 76,155.2 76,164.2 79.8,164.2 			"/>
			<path class="st1" d="M87.7,134.8l-1.1-6.6l0.3,0c0.5-0.1,1.1-0.2,1.6-0.3l0.2,0l0.1,0.1c1.4,2,2.8,4,4.2,6
				c1.3-0.2,2.6-0.4,3.8-0.5c-1.4-2-2.8-4-4.2-5.9l-0.2-0.3l0.3-0.1c1.8-0.8,2.8-2.6,2.5-4.5l-1.1-7.1c-0.3-2.1-2.2-3.7-4.3-3.7
				c-0.2,0-0.4,0-0.6,0c-3,0.5-6,1-9,1.5l3.6,22.2C85.1,135.2,86.4,135,87.7,134.8z M85,116.3c1.2-0.2,2.4-0.4,3.5-0.6
				c0.9-0.1,1.8,0.5,1.9,1.4l0.8,4.8c0.1,0.4,0,0.9-0.3,1.3c-0.3,0.4-0.7,0.6-1.1,0.7c-1.2,0.2-2.3,0.4-3.5,0.6l-0.3,0.1l-1.3-8.1
				L85,116.3z"/>
			<path class="st1" d="M116.8,154.6v-6.1c0-2.1-1.7-3.9-3.9-3.9h-8.4v19.5h3.8v-5.7h4.6C115.1,158.5,116.8,156.8,116.8,154.6z
				 M113,153.6c0,0.7-0.5,1.2-1.2,1.2h-3.5v-6.5h3.5c0.7,0,1.2,0.5,1.2,1.2V153.6z"/>
			<polygon class="st1" points="65.2,170.3 65.2,189.8 76.7,189.8 76.7,186.1 69.1,186.1 69.1,170.3 			"/>
			<path class="st1" d="M169.4,126.2c-1.6-0.9-3.2-1.7-4.9-2.5c-0.6-0.3-1.2-0.4-1.9-0.4c-1.6,0-3.1,0.9-3.9,2.4l-6.4,12.4
				c-0.5,1-0.6,2.1-0.3,3.2c0.3,1.1,1.1,1.9,2.1,2.5c1.6,0.8,3.3,1.7,4.9,2.5c0.6,0.3,1.3,0.5,2,0.5c1.6,0,3-0.9,3.7-2.2l6.4-12.4
				C172.3,130,171.5,127.3,169.4,126.2z M167.1,131.2l-5.3,10.3c-0.3,0.6-0.9,0.9-1.5,0.9c-0.3,0-0.5-0.1-0.8-0.2
				c-0.7-0.4-1.5-0.8-2.3-1.2c-0.4-0.2-0.7-0.6-0.8-1c-0.1-0.4-0.1-0.9,0.1-1.3l5.3-10.3c0.3-0.6,0.9-0.9,1.5-0.9
				c0.3,0,0.5,0.1,0.8,0.2c0.8,0.4,1.5,0.8,2.3,1.2C167.2,129.3,167.5,130.3,167.1,131.2z"/>
			<path class="st1" d="M69,139.8c0.5,0,1-0.1,1.4-0.2c1.7-0.6,3.5-1.2,5.2-1.8c1.1-0.4,2-1.1,2.5-2.1c0.5-1,0.6-2.1,0.2-3.2
				l-4.5-13.2c-0.6-1.7-2.3-3-4.1-3c-0.4,0-0.9,0.1-1.3,0.2c-1.7,0.6-3.5,1.2-5.2,1.8c-2.2,0.8-3.4,3.2-2.6,5.5l4.5,13.2
				C65.7,138.6,67.3,139.8,69,139.8z M65.9,121.3c0.8-0.3,1.6-0.5,2.4-0.8c0.2-0.1,0.4-0.1,0.5-0.1c0.7,0,1.4,0.5,1.6,1.2l3.7,11
				c0.1,0.4,0.1,0.9-0.1,1.3c-0.2,0.4-0.5,0.7-1,0.9c-0.8,0.3-1.6,0.5-2.4,0.8c-0.2,0.1-0.4,0.1-0.6,0.1h0c-0.7,0-1.4-0.5-1.6-1.1
				l-3.7-11C64.5,122.6,65,121.6,65.9,121.3z"/>
			<path class="st1" d="M51.6,127.3c1.5-0.7,2.9-1.5,4.4-2.2l-1.7-3.3c-4.3,2.1-8.6,4.3-12.8,6.6l1.7,3.3c1.4-0.8,2.9-1.6,4.3-2.3
				l0.3-0.1l8.6,16.6c1.2-0.6,2.3-1.2,3.5-1.8l-8.6-16.6L51.6,127.3z"/>
			<path class="st1" d="M122.2,111.3l-3.7,22.1c1.3,0.2,2.6,0.4,3.9,0.6l2.2-12.7l0.4,1.1c1.5,4.2,2.9,8.5,4.3,12.8
				c1,0.2,2,0.4,3.1,0.6l3.7-22.1c-1.3-0.3-2.6-0.5-3.9-0.7l-2.2,12.7l-0.4-1.1c-1.4-4.2-2.9-8.5-4.3-12.8
				C124.2,111.6,123.2,111.4,122.2,111.3z"/>
			<path class="st1" d="M140.3,189.8h5.5c2.2,0,3.9-1.7,3.9-3.9v-2.8c0-1.4-0.6-2.8-1.9-3.4c0,0-6.8-3-6.9-3.1
				c-0.3-0.2-0.6-0.6-0.6-1.1v-0.4c0-0.7,0.5-1.2,1.2-1.2l3.2,0c0.7,0,1.2,0.5,1.2,1.2v0.8h3.9v-1.8c0-2.1-1.7-3.9-3.9-3.9h-5.5
				c-2.2,0-3.9,1.7-3.9,3.9v2c0,1.4,0.6,2.8,1.9,3.4c0,0,6.8,3,6.9,3.1c0.3,0.2,0.6,0.6,0.6,1.1v1.2c0,0.7-0.5,1.2-1.2,1.2l-3.2,0
				c-0.7,0-1.2-0.5-1.2-1.2v-0.8h-3.9v1.8C136.4,188.1,138.2,189.8,140.3,189.8z"/>
			<polygon class="st1" points="149.7,160.5 142.3,160.5 142.3,156.3 147.3,156.3 147.3,152.6 142.3,152.6 142.3,148.3 149.7,148.3 
				149.7,144.7 138.4,144.7 138.4,164.2 149.7,164.2 			"/>
			<polygon class="st1" points="131.4,173.9 131.4,170.3 119.1,170.3 119.1,189.8 123,189.8 123,181.9 128.9,181.9 128.9,178.2 
				123,178.2 123,173.9 			"/>
			<path class="st1" d="M143.5,139.2l6-17.7l0.3,0.1c1.5,0.5,3.1,1.1,4.6,1.7l1.2-3.5c-4.5-1.7-9.1-3.2-13.6-4.6l-1.2,3.5
				c1.6,0.5,3.1,1,4.7,1.5l0.3,0.1l-6,17.7C141,138.3,142.2,138.7,143.5,139.2z"/>
			<path class="st1" d="M103.5,186.1h6l0.9,3.7h4l-5.3-19.5h-5.3l-5.3,19.5h4L103.5,186.1z M106.5,174.3l2.1,8.1h-4.1L106.5,174.3z"
				/>
			<path class="st1" d="M95.6,164.2h3.9l-4.8-19.5h-5.2l-4.8,19.5h3.9l0.8-3.7h5.3L95.6,164.2z M90.3,156.9l1.8-8.1l1.8,8.1H90.3z"
				/>
			<polygon class="st1" points="133.5,160.5 126.4,160.5 126.4,144.7 122.6,144.7 122.6,164.2 133.5,164.2 			"/>
			<polygon class="st1" points="94,173.9 94,170.3 81.7,170.3 81.7,189.8 94,189.8 94,186.1 85.6,186.1 85.6,181.9 91.6,181.9 
				91.6,178.2 85.6,178.2 85.6,173.9 			"/>
		</g>
	</g>
</g>
</svg>
